<?xml version="1.0" standalone="no"?><!DOCTYPE svg PUBLIC "-//W3C//DTD SVG 1.1//EN" "http://www.w3.org/Graphics/SVG/1.1/DTD/svg11.dtd"><svg t="1740551307211" class="icon" viewBox="0 0 1024 1024" version="1.1" xmlns="http://www.w3.org/2000/svg" p-id="1469" data-spm-anchor-id="a313x.search_index.0.i0.10c83a81Q4GQ2B" xmlns:xlink="http://www.w3.org/1999/xlink" width="200" height="200"><path d="M725.333333 170.666667a128 128 0 1 1-128 128 128 128 0 0 1 128-128m0-42.666667a170.666667 170.666667 0 1 0 170.666667 170.666667 170.666667 170.666667 0 0 0-170.666667-170.666667z" p-id="1470" data-spm-anchor-id="a313x.search_index.0.i1.10c83a81Q4GQ2B" class="" fill="#2c2c2c"></path><path d="M714.666667 308.266667l-163.2 561.493333-186.453334-129.066667 177.066667-177.28L572.373333 533.333333l-30.293333-30.08-21.333333-21.333333-25.6-25.813333-29.653334 21.333333-198.613333 144.64-112.64-169.173333 560.426667-144.64M746.666667 256L85.333333 426.666667l170.666667 256 234.666667-170.666667 21.333333 21.333333-213.333333 213.333334 277.333333 192 192-661.333334-21.333333-21.333333z" p-id="1471" data-spm-anchor-id="a313x.search_index.0.i2.10c83a81Q4GQ2B" class="" fill="#2c2c2c"></path></svg>